<svg width="143" height="193" viewBox="0 0 143 193" fill="none" xmlns="http://www.w3.org/2000/svg">
<g opacity="0.8">
<path fill-rule="evenodd" clip-rule="evenodd" d="M120.652 183.747C120.652 178.637 116.477 174.494 111.326 174.494C106.176 174.494 102.001 178.637 102.001 183.747C102.001 188.857 106.176 193 111.326 193C116.477 193 120.652 188.857 120.652 183.747Z" fill="#DF0E12"/>
<path d="M111.326 174.494L111.326 84.2773L34.3911 1.00017" stroke="#DF0E12" stroke-width="1.5"/>
<path fill-rule="evenodd" clip-rule="evenodd" d="M98.3912 134.565C98.3912 128.418 93.408 123.434 87.2608 123.434C81.1136 123.434 76.1304 128.418 76.1304 134.565C76.1304 140.712 81.1136 145.695 87.2608 145.695C93.408 145.695 98.3912 140.712 98.3912 134.565Z" fill="#DF0E12"/>
<path d="M92.8261 131.782L92.8261 92.0804L1 0.999615" stroke="#DF0E12" stroke-width="1.5"/>
<path fill-rule="evenodd" clip-rule="evenodd" d="M142.913 140.131C142.913 135.52 139.175 131.783 134.565 131.783C129.955 131.783 126.217 135.52 126.217 140.131C126.217 144.741 129.955 148.479 134.565 148.479C139.175 148.479 142.913 144.741 142.913 140.131Z" fill="#DF0E12"/>
<path d="M131.783 140.131V70.8015L67.3028 6.09401L65 3.78303" stroke="#DF0E12" stroke-width="1.5"/>
</g>
</svg>
