<svg width="1636" height="3188" viewBox="0 0 1636 3188" fill="none" xmlns="http://www.w3.org/2000/svg">
<path d="M427.086 2855.64C419.689 2855.64 413.693 2849.57 413.693 2842.09C413.693 2762.37 462.155 2712.96 513.461 2660.65C550.367 2623.03 588.527 2584.12 615.634 2529.45C618.951 2522.76 626.994 2520.05 633.61 2523.41C640.22 2526.77 642.891 2534.91 639.574 2541.6C610.548 2600.14 569.066 2642.43 532.471 2679.75C483.108 2730.08 440.476 2773.54 440.476 2842.09C440.478 2849.57 434.484 2855.64 427.086 2855.64Z" fill="#FBC300"/>
<path d="M426.358 2855.64C418.961 2855.64 412.965 2849.57 412.965 2842.09C412.965 2773.54 370.333 2730.08 320.971 2679.75C284.373 2642.44 242.893 2600.14 213.868 2541.6C210.55 2534.91 213.221 2526.77 219.831 2523.41C226.445 2520.05 234.49 2522.76 237.808 2529.45C264.916 2584.12 303.077 2623.02 339.98 2660.65C391.289 2712.96 439.75 2762.37 439.75 2842.09C439.75 2849.57 433.754 2855.64 426.358 2855.64Z" fill="#FBC300"/>
<path fill-rule="evenodd" clip-rule="evenodd" d="M223.846 2955.66H625.618C633.014 2955.66 639.01 2949.6 639.01 2942.11V2535.52C639.01 2528.04 633.014 2521.97 625.618 2521.97H223.846C216.449 2521.97 210.453 2528.04 210.453 2535.52V2942.11C210.453 2949.6 216.449 2955.66 223.846 2955.66ZM612.224 2928.56H237.237V2549.08H612.224V2928.56Z" fill="#FBC300"/>
<path fill-rule="evenodd" clip-rule="evenodd" d="M281.238 3052.47H568.218C575.615 3052.47 581.611 3046.4 581.611 3038.92V2942.11C581.611 2934.63 575.615 2928.56 568.218 2928.56H281.238C273.842 2928.56 267.846 2934.63 267.846 2942.11V3038.92C267.846 3046.4 273.842 3052.47 281.238 3052.47ZM554.825 3025.37H294.629V2955.66H554.825V3025.37Z" fill="#FBC300"/>
<path fill-rule="evenodd" clip-rule="evenodd" d="M281.238 2549.08H568.218C575.615 2549.08 581.611 2543.01 581.611 2535.52V2438.72C581.611 2431.23 575.615 2425.16 568.218 2425.16H281.238C273.842 2425.16 267.846 2431.23 267.846 2438.72V2535.52C267.846 2543.01 273.842 2549.08 281.238 2549.08ZM554.825 2521.97H294.629V2452.27H554.825V2521.97Z" fill="#FBC300"/>
<path fill-rule="evenodd" clip-rule="evenodd" d="M306.112 2438.72C306.112 2446.2 312.108 2452.27 319.505 2452.27H529.957C537.353 2452.27 543.349 2446.2 543.349 2438.72V2409.68C543.349 2343.49 490.137 2289.64 424.731 2289.64C359.324 2289.64 306.112 2343.49 306.112 2409.68V2438.72ZM516.564 2409.68V2425.17H332.896V2409.68C332.896 2358.43 374.093 2316.74 424.73 2316.74C475.367 2316.74 516.564 2358.43 516.564 2409.68Z" fill="#FBC300"/>
<path fill-rule="evenodd" clip-rule="evenodd" d="M306.112 3067.96C306.112 3134.15 359.324 3188 424.731 3188C490.137 3188 543.349 3134.15 543.349 3067.96V3038.92C543.349 3031.43 537.353 3025.36 529.957 3025.36H319.505C312.108 3025.36 306.112 3031.43 306.112 3038.92V3067.96ZM332.896 3067.96V3052.47H516.564V3067.96C516.564 3119.2 475.367 3160.89 424.73 3160.89C374.093 3160.89 332.896 3119.2 332.896 3067.96Z" fill="#FBC300"/>
<path d="M683.013 2955.66H625.617C618.221 2955.66 612.225 2949.6 612.225 2942.11C612.225 2934.63 618.221 2928.56 625.617 2928.56H683.013C690.41 2928.56 696.405 2934.63 696.405 2942.11C696.405 2949.6 690.41 2955.66 683.013 2955.66Z" fill="#FBC300"/>
<path d="M223.841 2955.66H166.445C159.049 2955.66 153.053 2949.6 153.053 2942.11C153.053 2934.63 159.049 2928.56 166.445 2928.56H223.841C231.238 2928.56 237.234 2934.63 237.234 2942.11C237.234 2949.6 231.238 2955.66 223.841 2955.66Z" fill="#FBC300"/>
<path d="M683.013 2549.08H625.617C618.221 2549.08 612.225 2543.01 612.225 2535.52C612.225 2528.04 618.221 2521.97 625.617 2521.97H683.013C690.41 2521.97 696.405 2528.04 696.405 2535.52C696.405 2543.01 690.41 2549.08 683.013 2549.08Z" fill="#FBC300"/>
<path d="M223.841 2549.08H166.445C159.049 2549.08 153.053 2543.01 153.053 2535.52C153.053 2528.04 159.049 2521.97 166.445 2521.97H223.841C231.238 2521.97 237.234 2528.04 237.234 2535.52C237.234 2543.01 231.238 2549.08 223.841 2549.08Z" fill="#FBC300"/>
<path fill-rule="evenodd" clip-rule="evenodd" d="M0 2907.26C0 2936.09 23.1727 2959.54 51.6564 2959.54C80.1402 2959.54 103.313 2936.09 103.313 2907.26C103.313 2878.44 80.1402 2854.99 51.6564 2854.99C23.1727 2854.99 0 2878.44 0 2907.26ZM26.7838 2907.26C26.7838 2893.39 37.9416 2882.09 51.6554 2882.09C65.3692 2882.09 76.527 2893.39 76.527 2907.26C76.527 2921.14 65.3692 2932.43 51.6554 2932.43C37.9416 2932.43 26.7838 2921.14 26.7838 2907.26Z" fill="#FBC300"/>
<path fill-rule="evenodd" clip-rule="evenodd" d="M707.885 2390.31C707.885 2424.48 735.349 2452.27 769.107 2452.27C802.866 2452.27 830.33 2424.48 830.33 2390.31C830.33 2356.15 802.866 2328.36 769.107 2328.36C735.349 2328.36 707.885 2356.15 707.885 2390.31ZM734.668 2390.32C734.668 2371.1 750.118 2355.47 769.106 2355.47C788.095 2355.47 803.544 2371.1 803.544 2390.32C803.544 2409.53 788.095 2425.17 769.106 2425.17C750.118 2425.17 734.668 2409.53 734.668 2390.32Z" fill="#FBC300"/>
<path fill-rule="evenodd" clip-rule="evenodd" d="M223.846 2855.64H625.618C633.014 2855.64 639.01 2849.57 639.008 2842.09C639.008 2763.21 590.535 2712.94 539.216 2659.71L539.206 2659.7C502.809 2621.95 465.173 2582.91 438.696 2529.45C436.425 2524.87 431.793 2521.97 426.727 2521.97H426.723C421.659 2521.97 417.025 2524.86 414.754 2529.45C387.563 2584.29 348.808 2623.29 311.329 2661.01L311.319 2661.02C259.448 2713.22 210.453 2762.53 210.453 2842.09C210.453 2849.57 216.449 2855.64 223.846 2855.64ZM611.641 2828.53H237.82C243.11 2767.89 283.703 2727.04 330.207 2680.24C362.561 2647.68 398.675 2611.34 426.715 2563.72C453.909 2610.04 488.785 2646.22 520.046 2678.64C566.137 2726.44 606.37 2768.18 611.641 2828.53Z" fill="#FBC300"/>
<path fill-rule="evenodd" clip-rule="evenodd" d="M746.151 3116.36C746.151 3145.19 769.324 3168.64 797.808 3168.64C826.292 3168.64 849.464 3145.19 849.464 3116.36C849.464 3087.54 826.292 3064.09 797.808 3064.09C769.324 3064.09 746.151 3087.54 746.151 3116.36ZM772.935 3116.36C772.935 3102.48 784.093 3091.19 797.807 3091.19C811.521 3091.19 822.679 3102.48 822.679 3116.36C822.679 3130.24 811.521 3141.53 797.807 3141.53C784.093 3141.53 772.935 3130.24 772.935 3116.36Z" fill="#FBC300"/>
<path d="M606.487 2452.27H242.978C235.582 2452.27 229.586 2446.2 229.586 2438.72C229.586 2431.23 235.582 2425.16 242.978 2425.16H606.487C613.883 2425.16 619.879 2431.23 619.879 2438.72C619.879 2446.2 613.883 2452.27 606.487 2452.27Z" fill="#FBC300"/>
<path d="M606.487 3052.47H242.978C235.582 3052.47 229.586 3046.4 229.586 3038.92C229.586 3031.43 235.582 3025.36 242.978 3025.36H606.487C613.883 3025.36 619.879 3031.43 619.879 3038.92C619.879 3046.4 613.883 3052.47 606.487 3052.47Z" fill="#FBC300"/>
<path d="M426.724 2839.5C419.328 2839.5 413.332 2833.43 413.332 2825.94V2535.52C413.332 2528.04 419.328 2521.97 426.724 2521.97C434.121 2521.97 440.117 2528.04 440.117 2535.52V2825.94C440.117 2833.43 434.121 2839.5 426.724 2839.5Z" fill="#FBC300"/>
<path d="M1208.91 1392.82C1216.31 1392.82 1222.31 1386.75 1222.31 1379.26C1222.31 1299.55 1173.85 1250.14 1122.54 1197.83C1085.63 1160.2 1047.47 1121.3 1020.37 1066.62C1017.05 1059.93 1009.01 1057.23 1002.39 1060.59C995.78 1063.94 993.109 1072.09 996.426 1078.78C1025.45 1137.32 1066.93 1179.61 1103.53 1216.93C1152.89 1267.25 1195.52 1310.72 1195.52 1379.26C1195.52 1386.75 1201.52 1392.82 1208.91 1392.82Z" fill="#FBC300"/>
<path d="M1209.64 1392.82C1217.04 1392.82 1223.03 1386.75 1223.03 1379.27C1223.03 1310.72 1265.67 1267.25 1315.03 1216.93C1351.63 1179.61 1393.11 1137.32 1422.13 1078.78C1425.45 1072.09 1422.78 1063.95 1416.17 1060.59C1409.55 1057.23 1401.51 1059.93 1398.19 1066.62C1371.08 1121.29 1332.92 1160.2 1296.02 1197.83C1244.71 1250.14 1196.25 1299.55 1196.25 1379.26C1196.25 1386.75 1202.25 1392.82 1209.64 1392.82Z" fill="#FBC300"/>
<path fill-rule="evenodd" clip-rule="evenodd" d="M1412.15 1492.84H1010.38C1002.99 1492.84 996.99 1486.77 996.99 1479.29V1072.7C996.99 1065.22 1002.99 1059.15 1010.38 1059.15H1412.15C1419.55 1059.15 1425.55 1065.22 1425.55 1072.7V1479.29C1425.55 1486.77 1419.55 1492.84 1412.15 1492.84ZM1023.78 1465.74H1398.76V1086.26H1023.78V1465.74Z" fill="#FBC300"/>
<path fill-rule="evenodd" clip-rule="evenodd" d="M1354.76 1589.65H1067.78C1060.39 1589.65 1054.39 1583.58 1054.39 1576.09V1479.29C1054.39 1471.8 1060.39 1465.73 1067.78 1465.73H1354.76C1362.16 1465.73 1368.15 1471.8 1368.15 1479.29V1576.09C1368.15 1583.58 1362.16 1589.65 1354.76 1589.65ZM1081.18 1562.54H1341.37V1492.84H1081.18V1562.54Z" fill="#FBC300"/>
<path fill-rule="evenodd" clip-rule="evenodd" d="M1354.76 1086.25H1067.78C1060.39 1086.25 1054.39 1080.19 1054.39 1072.7V975.895C1054.39 968.41 1060.39 962.342 1067.78 962.342H1354.76C1362.16 962.342 1368.15 968.41 1368.15 975.895V1072.7C1368.15 1080.19 1362.16 1086.25 1354.76 1086.25ZM1081.18 1059.15H1341.37V989.449H1081.18V1059.15Z" fill="#FBC300"/>
<path fill-rule="evenodd" clip-rule="evenodd" d="M1329.89 975.895C1329.89 983.381 1323.89 989.448 1316.5 989.448H1106.04C1098.65 989.448 1092.65 983.381 1092.65 975.895V946.854C1092.65 880.663 1145.86 826.813 1211.27 826.813C1276.68 826.813 1329.89 880.663 1329.89 946.854V975.895ZM1119.44 946.855V962.344H1303.1V946.855C1303.1 895.612 1261.91 853.921 1211.27 853.921C1160.63 853.921 1119.44 895.612 1119.44 946.855Z" fill="#FBC300"/>
<path fill-rule="evenodd" clip-rule="evenodd" d="M1329.89 1605.14C1329.89 1671.33 1276.68 1725.18 1211.27 1725.18C1145.86 1725.18 1092.65 1671.33 1092.65 1605.14V1576.09C1092.65 1568.61 1098.65 1562.54 1106.04 1562.54H1316.5C1323.89 1562.54 1329.89 1568.61 1329.89 1576.09V1605.14ZM1303.1 1605.14V1589.65H1119.44V1605.14C1119.44 1656.38 1160.63 1698.07 1211.27 1698.07C1261.91 1698.07 1303.1 1656.38 1303.1 1605.14Z" fill="#FBC300"/>
<path d="M952.987 1492.84H1010.38C1017.78 1492.84 1023.78 1486.77 1023.78 1479.29C1023.78 1471.8 1017.78 1465.73 1010.38 1465.73H952.987C945.59 1465.73 939.595 1471.8 939.595 1479.29C939.595 1486.77 945.59 1492.84 952.987 1492.84Z" fill="#FBC300"/>
<path d="M1412.16 1492.84H1469.55C1476.95 1492.84 1482.95 1486.77 1482.95 1479.29C1482.95 1471.8 1476.95 1465.73 1469.55 1465.73H1412.16C1404.76 1465.73 1398.77 1471.8 1398.77 1479.29C1398.77 1486.77 1404.76 1492.84 1412.16 1492.84Z" fill="#FBC300"/>
<path d="M952.987 1086.25H1010.38C1017.78 1086.25 1023.78 1080.19 1023.78 1072.7C1023.78 1065.22 1017.78 1059.15 1010.38 1059.15H952.987C945.59 1059.15 939.595 1065.22 939.595 1072.7C939.595 1080.19 945.59 1086.25 952.987 1086.25Z" fill="#FBC300"/>
<path d="M1412.16 1086.25H1469.55C1476.95 1086.25 1482.95 1080.19 1482.95 1072.7C1482.95 1065.22 1476.95 1059.15 1469.55 1059.15H1412.16C1404.76 1059.15 1398.77 1065.22 1398.77 1072.7C1398.77 1080.19 1404.76 1086.25 1412.16 1086.25Z" fill="#FBC300"/>
<path fill-rule="evenodd" clip-rule="evenodd" d="M1636 1444.44C1636 1473.27 1612.83 1496.72 1584.34 1496.72C1555.86 1496.72 1532.69 1473.27 1532.69 1444.44C1532.69 1415.62 1555.86 1392.17 1584.34 1392.17C1612.83 1392.17 1636 1415.62 1636 1444.44ZM1609.22 1444.44C1609.22 1430.56 1598.06 1419.27 1584.34 1419.27C1570.63 1419.27 1559.47 1430.56 1559.47 1444.44C1559.47 1458.32 1570.63 1469.61 1584.34 1469.61C1598.06 1469.61 1609.22 1458.32 1609.22 1444.44Z" fill="#FBC300"/>
<path fill-rule="evenodd" clip-rule="evenodd" d="M928.115 927.491C928.115 961.654 900.651 989.447 866.893 989.447C833.134 989.447 805.67 961.654 805.67 927.491C805.67 893.328 833.134 865.535 866.893 865.535C900.651 865.535 928.115 893.328 928.115 927.491ZM901.332 927.493C901.332 908.276 885.882 892.642 866.894 892.642C847.905 892.642 832.456 908.276 832.456 927.493C832.456 946.709 847.905 962.343 866.894 962.343C885.882 962.343 901.332 946.709 901.332 927.493Z" fill="#FBC300"/>
<path fill-rule="evenodd" clip-rule="evenodd" d="M1412.15 1392.82H1010.38C1002.99 1392.82 996.99 1386.75 996.992 1379.26C996.992 1300.39 1045.46 1250.11 1096.78 1196.89L1096.79 1196.88C1133.19 1159.13 1170.83 1120.09 1197.3 1066.63C1199.57 1062.04 1204.21 1059.15 1209.27 1059.15H1209.28C1214.34 1059.15 1218.97 1062.04 1221.25 1066.62C1248.44 1121.47 1287.19 1160.47 1324.67 1198.19L1324.68 1198.2C1376.55 1250.4 1425.55 1299.7 1425.55 1379.26C1425.55 1386.75 1419.55 1392.82 1412.15 1392.82ZM1024.36 1365.71H1398.18C1392.89 1305.07 1352.3 1264.22 1305.79 1217.42C1273.44 1184.86 1237.33 1148.51 1209.29 1100.89C1182.09 1147.22 1147.22 1183.4 1115.95 1215.82C1069.86 1263.62 1029.63 1305.36 1024.36 1365.71Z" fill="#FBC300"/>
<path fill-rule="evenodd" clip-rule="evenodd" d="M889.849 1653.54C889.849 1682.36 866.676 1705.81 838.192 1705.81C809.708 1705.81 786.536 1682.36 786.536 1653.54C786.536 1624.71 809.708 1601.26 838.192 1601.26C866.676 1601.26 889.849 1624.71 889.849 1653.54ZM863.065 1653.54C863.065 1639.66 851.907 1628.37 838.193 1628.37C824.479 1628.37 813.321 1639.66 813.321 1653.54C813.321 1667.42 824.479 1678.71 838.193 1678.71C851.907 1678.71 863.065 1667.42 863.065 1653.54Z" fill="#FBC300"/>
<path d="M1029.51 989.448H1393.02C1400.42 989.448 1406.41 983.38 1406.41 975.895C1406.41 968.41 1400.42 962.342 1393.02 962.342H1029.51C1022.12 962.342 1016.12 968.41 1016.12 975.895C1016.12 983.38 1022.12 989.448 1029.51 989.448Z" fill="#FBC300"/>
<path d="M1029.51 1589.65H1393.02C1400.42 1589.65 1406.41 1583.58 1406.41 1576.09C1406.41 1568.61 1400.42 1562.54 1393.02 1562.54H1029.51C1022.12 1562.54 1016.12 1568.61 1016.12 1576.09C1016.12 1583.58 1022.12 1589.65 1029.51 1589.65Z" fill="#FBC300"/>
<path d="M1209.28 1376.67C1216.67 1376.67 1222.67 1370.61 1222.67 1363.12V1072.7C1222.67 1065.22 1216.67 1059.15 1209.28 1059.15C1201.88 1059.15 1195.88 1065.22 1195.88 1072.7V1363.12C1195.88 1370.61 1201.88 1376.67 1209.28 1376.67Z" fill="#FBC300"/>
<rect x="409" width="31.4615" height="2305.54" fill="#FBC300"/>
<rect x="1195.54" width="31.4615" height="842.713" fill="#FBC300"/>
</svg>
