<svg width="1117" height="1060" viewBox="0 0 1117 1060" fill="none" xmlns="http://www.w3.org/2000/svg">
<g opacity="0.8">
<path fill-rule="evenodd" clip-rule="evenodd" d="M937.165 408.649C992.636 429.043 1049.07 466.313 1105.84 520.162L1117 530.73L1106.18 541.631C1102.45 545.396 1037.37 610.01 946.291 645.737C908.785 769.386 806.981 867.456 677.501 905.047C639.305 987.241 575.164 1045.41 571.18 1048.97L559.685 1059.23L548.528 1048.65C496.975 999.759 459.951 951.267 437.455 903.504C310.839 864.975 211.47 768.436 174.133 647.021C81.2866 611.603 14.6066 545.445 10.8313 541.643L0 530.742L11.1697 520.15C69.1665 465.165 126.786 427.537 183.389 407.439C225.009 301.851 314.666 218.361 427.015 180.881C447.401 125.044 487.888 68.0958 548.528 10.5921L559.685 0L571.18 10.2712C575.554 14.1722 652.571 84.021 687.967 179.264C803.115 216.028 895.128 300.9 937.165 408.649ZM842.429 390.353C860.421 390.637 878.568 392.834 896.82 396.871C857.895 315.122 786.88 250.001 699.032 216.04C702.755 232.249 705.008 248.952 705.372 266.037C763.304 293.493 810.938 336.898 842.429 390.353ZM705.208 778.193L705.207 778.178C705.132 775.957 705.056 773.742 704.892 771.497C702.849 744.597 695.74 718.894 683.855 694.389C701.885 681.303 717.65 665.576 730.252 647.626C758.098 660.057 787.455 667.107 818.243 668.637C792.61 715.376 753.321 753.905 705.27 779.978C705.248 779.382 705.228 778.787 705.208 778.193ZM389.104 646.576C361.492 659.255 332.396 666.662 301.855 668.551C327.045 714.364 365.41 752.387 412.25 778.509C412.31 777.744 412.366 776.98 412.423 776.215V776.215C412.639 773.289 412.855 770.367 413.227 767.46C416.703 740.35 425.178 716.055 436.113 694.352C417.77 681.032 401.823 664.934 389.104 646.576ZM844.8 573.888C825.025 573.888 808.947 558.642 808.947 539.902C808.947 521.15 825.025 505.904 844.8 505.904C864.575 505.904 880.652 521.15 880.652 539.902C880.652 558.642 864.562 573.888 844.8 573.888ZM763.607 525.187H778.331C785.283 497.065 811.45 476.004 842.993 475.201C838.254 456.523 831.381 438.722 822.919 421.784C790.959 424.068 762.579 433.216 738.026 445.548C752.255 469.436 761.212 496.423 763.607 525.187ZM731.07 556.062C729.313 573.494 724.639 590.122 717.544 605.542C688.709 587.789 661.722 562.901 636.752 530.804C647.492 516.582 672.761 486.682 710.319 461.659C721.541 480.819 728.805 502.311 731.07 525.187H690.974V556.05H731.07V556.062ZM569.344 572.382C612.539 601.06 645.502 632.7 668.206 667.007C681.029 657.131 692.289 645.564 701.676 632.639C666.188 611.158 633.394 580.295 603.595 539.927L597.503 531.692L602.997 523.088C605.054 519.853 635.555 472.991 691.56 435.832C681.771 424.783 670.458 415.018 657.947 406.76C635.933 435.511 606.394 462.276 569.357 486.867L560.674 492.632L551.6 487.435C548.463 485.633 500.985 457.868 462.138 406.735C449.133 415.315 437.364 425.499 427.314 437.079C482.108 474.028 511.946 519.878 513.99 523.088L519.458 531.68L513.378 539.914C484.152 579.493 452.062 609.948 417.381 631.367C426.923 644.811 438.562 656.81 451.802 667.007C491.989 606.615 548.163 573.777 551.587 571.814L560.661 566.617L569.344 572.382ZM558.512 845.383C538.737 845.383 522.66 830.137 522.66 811.384C522.66 792.632 538.737 777.386 558.512 777.386C578.274 777.386 594.352 792.632 594.352 811.384C594.352 830.137 578.261 845.383 558.512 845.383ZM542.226 702.635V663.971H574.759V702.808C598.57 700.883 621.013 694.401 641.075 684.18C622.224 655.428 595.094 628.577 559.723 603.837C543.255 615.022 506.777 642.675 479.152 684.266C498.302 694.006 519.613 700.413 542.226 702.635ZM276.694 604.319C307.014 602.43 331.944 581.925 338.675 554.618H356.354C358.098 577.518 363.982 599.32 373.434 619.343C346.303 631.565 317.689 637.886 287.695 638.12C283.334 627.158 279.571 615.911 276.694 604.319ZM276.992 475.51C306.635 477.498 330.953 497.262 338.191 523.755H356.495C359.021 496.003 367.678 469.906 381.269 446.709C356.964 434.191 328.844 424.661 297.106 421.945C288.605 438.932 281.744 456.795 276.992 475.51ZM272.202 505.904C291.977 505.904 308.055 521.15 308.055 539.902C308.055 558.642 291.977 573.888 272.202 573.888C252.427 573.888 236.35 558.642 236.35 539.902C236.363 521.162 252.44 505.904 272.202 505.904ZM428.418 554.618H388.894C390.469 572.037 394.857 588.703 401.795 604.146C429.746 586.505 455.939 562.025 480.231 530.804C469.699 516.854 445.212 487.806 408.825 463.091C398.306 481.485 391.42 501.99 389.05 523.755H428.418V554.618ZM445.502 287.802C445.475 287.592 445.462 287.385 445.449 287.179C445.436 286.972 445.423 286.765 445.397 286.555C459.861 280.704 474.962 275.951 490.532 272.346C492.42 301.505 514.46 325.517 543.751 331.665V347.479C518.639 349.367 494.854 355.602 473.1 365.354C459.731 342.985 449.212 317.06 445.502 287.802ZM594.352 268.408C594.352 249.656 578.274 234.409 558.512 234.409C538.737 234.409 522.66 249.656 522.66 268.408C522.66 287.16 538.737 302.406 558.512 302.406C578.274 302.406 594.352 287.16 594.352 268.408ZM626.547 271.667C642.377 275.161 657.726 279.79 672.41 285.58V285.629C670.262 313.554 661.8 340.182 647.103 365.404C625.297 355.614 601.46 349.355 576.296 347.454V330.738C604.259 323.554 625.023 300.085 626.547 271.667ZM543.748 415.007V378.329C525.158 379.996 507.44 384.514 491.024 391.366C516.475 423.846 545.518 445.783 559.721 455.425C588.271 435.438 611.404 414.068 629.213 391.452C612.745 384.551 594.975 379.996 576.294 378.329V415.007H543.748ZM719.407 419.451C706.818 404.587 692.029 391.501 675.444 380.687C690.324 355.231 699.71 328.356 703.525 300.184C745.209 322.48 780.411 354.096 805.953 392.329C773.381 396.489 744.441 406.562 719.407 419.451ZM574.786 205.608C594.118 210.126 610.053 222.422 619.009 238.829C637.248 242.014 654.888 246.606 671.877 252.495C670.315 235.866 666.917 219.583 661.97 203.88C634.111 196.275 604.911 191.683 574.786 190.559V205.608ZM542.241 205.608C522.661 210.176 506.532 222.731 497.653 239.434C479.284 242.841 461.514 247.693 444.434 253.878C445.293 237.854 448.184 221.632 453.039 205.25C481.497 197.066 511.375 192.029 542.254 190.634V205.608H542.241ZM444.692 380.637C431.009 357.651 420.126 331.096 414.932 301.159C373.898 323.492 339.191 354.91 313.961 392.723C346.286 397.229 374.965 407.55 399.752 420.586C412.549 405.254 427.651 391.723 444.692 380.637ZM242.427 481.794C224.657 490.028 211.274 505.237 206.223 523.755H191.044C192.645 491.744 198.855 460.881 208.944 431.66C226.61 426.401 244.08 423.167 261.343 421.833C252.946 440.882 246.684 460.98 242.427 481.794ZM242.14 597.863C224.032 589.382 210.441 573.691 205.741 554.618V554.63H190.965C191.955 578.246 195.431 601.258 201.133 623.467C217.536 628.911 234.59 633.108 252.099 635.59C247.92 623.355 244.705 610.726 242.14 597.863ZM445.5 771.448C448.273 749.535 454.912 729.499 463.661 711.401C487.445 723.511 514.029 731.202 542.239 733.523V748.597C513.3 755.362 491.702 779.497 490.413 808.705C474.414 805.002 458.974 800.051 444.172 793.99C444.198 786.422 444.55 778.916 445.5 771.448ZM542.227 874.184C523.208 869.752 507.481 857.765 498.447 841.766C480.69 838.531 463.479 833.939 446.907 828.087C449.693 844.568 454.575 861.246 461.501 878.097C487.407 884.899 514.394 889.146 542.227 890.405V874.184ZM574.77 874.184C593.556 869.814 609.126 858.062 618.226 842.359C635.54 839.383 652.347 835.149 668.555 829.742C665.066 846.976 659.676 863.642 653.063 879.579C627.898 885.801 601.705 889.492 574.77 890.505V874.184ZM574.77 748.585C603.932 755.387 625.698 779.855 626.675 809.372C642.609 805.866 658.01 801.163 672.773 795.336C673.046 788.139 672.981 780.892 672.421 773.608C670.768 752.115 665.274 731.4 656.174 711.488C631.596 723.969 604.01 731.672 574.77 733.659V748.585ZM831.183 638.182C801.41 638.182 773.017 632.183 746.056 620.43C755.599 600.53 761.691 578.864 763.618 556.062H778.823C786.322 583.543 812.189 603.974 843.329 604.616C840.452 616.134 836.69 627.257 832.394 638.145C831.977 638.133 831.587 638.182 831.183 638.182ZM911.261 554.618C906.86 572.469 894.636 587.32 878.246 596.122C875.668 609.467 872.388 622.541 868.105 635.182C885.693 632.479 902.747 627.997 919.15 622.368C924.696 600.505 928.093 577.851 929.057 554.618H911.261ZM910.787 523.755C906.062 506.447 894.046 492.077 877.968 483.534C873.75 462.19 867.41 441.61 858.883 422.117C876.211 423.697 893.746 427.203 911.464 432.734C921.358 461.622 927.412 492.139 929 523.755H910.787ZM648.406 168.745C621.588 110.328 579.825 63.7499 560.011 43.5903C516.686 86.5267 485.468 128.71 466.396 169.893C490.897 164.326 516.243 160.844 542.241 159.77V98.6619H574.787V159.709C599.977 160.573 624.582 163.659 648.406 168.745ZM416.418 217.756C412.968 234.471 411.393 251.063 411.653 267.531C355.245 295.073 308.769 337.899 277.799 390.23C259.86 390.292 241.777 392.316 223.564 396.131C261.89 316.147 330.927 252.088 416.418 217.756ZM170.539 446.116C129.804 464.449 88.1979 492.744 45.9533 531.063C65.6631 548.495 109.353 583.728 164.668 609.06C161.257 591.308 159.135 573.136 158.419 554.618H93.965V523.755H158.497C159.708 497.077 163.795 471.103 170.539 446.116ZM212.486 659.305C229.631 663.724 247.414 666.835 265.64 668.205C295.895 731.153 347.629 782.521 412.383 813.89C413.828 831.025 417.265 848.272 422.667 865.641C325.29 828.507 248.286 753.214 212.486 659.305ZM479.271 913.985C498.434 947.317 525.278 981.253 560.011 1015.67C576.987 998.401 610.014 961.662 636.012 914.8C616.081 918.429 595.629 920.639 574.774 921.367V981.142H542.228V921.281C520.774 920.404 499.736 917.948 479.271 913.985ZM692.301 867.53C697.704 850.889 701.727 833.569 703.823 815.742C770.568 784.596 823.787 732.425 854.588 667.959C872.866 666.378 890.688 663.07 907.859 658.441C871.577 754.375 792.373 831.013 692.301 867.53ZM961.612 554.618C960.922 572.617 958.891 590.295 955.636 607.579C1009.43 582.382 1051.76 548.162 1071.08 531.076C1030 493.818 989.523 465.992 949.869 447.623C956.365 472.152 960.336 497.608 961.547 523.755H1024.57V554.618H961.612Z" fill="#FBC300"/>
</g>
</svg>
