<svg width="1465" height="1390" viewBox="0 0 1465 1390" fill="none" xmlns="http://www.w3.org/2000/svg">
<g opacity="0.7">
<path fill-rule="evenodd" clip-rule="evenodd" d="M1229.14 535.963C1301.89 562.711 1375.91 611.592 1450.37 682.218L1465 696.078L1450.81 710.375C1445.91 715.313 1360.56 800.058 1241.11 846.916C1191.92 1009.09 1058.4 1137.71 888.575 1187.01C838.48 1294.81 754.355 1371.11 749.13 1375.77L734.054 1389.23L719.421 1375.35C651.807 1311.23 603.248 1247.63 573.744 1184.99C407.681 1134.46 277.353 1007.84 228.384 848.6C106.611 802.147 19.1572 715.378 14.2057 710.391L0 696.094L14.6497 682.202C90.7152 610.086 166.286 560.735 240.524 534.376C295.11 395.892 412.7 286.391 560.051 237.234C586.789 164.001 639.89 89.311 719.421 13.8921L734.054 0L749.13 13.4711C754.867 18.5876 855.878 110.198 902.303 235.113C1053.32 283.331 1174 394.646 1229.14 535.963ZM1104.9 511.968C1128.49 512.34 1152.29 515.222 1176.23 520.517C1125.18 413.298 1032.04 327.889 916.823 283.347C921.706 304.606 924.66 326.513 925.138 348.922C1001.12 384.931 1063.59 441.86 1104.9 511.968ZM924.987 1022.98C924.958 1022.19 924.932 1021.4 924.905 1020.62C924.806 1017.71 924.707 1014.8 924.492 1011.86C921.812 976.576 912.489 942.866 896.9 910.726C920.548 893.563 941.225 872.935 957.753 849.393C994.275 865.698 1032.78 874.943 1073.16 876.951C1039.54 938.251 988.008 988.784 924.987 1022.98ZM510.335 848.017C474.121 864.645 435.96 874.36 395.904 876.837C428.943 936.923 479.26 986.792 540.693 1021.05C540.727 1020.61 540.761 1020.18 540.793 1019.74L540.832 1019.23L540.863 1018.8L540.919 1018.04C541.203 1014.21 541.486 1010.37 541.974 1006.56C546.533 971.006 557.648 939.141 571.99 910.677C547.933 893.207 527.017 872.093 510.335 848.017ZM1107.99 752.682C1082.05 752.682 1060.96 732.686 1060.96 708.108C1060.96 683.513 1082.05 663.517 1107.99 663.517C1133.92 663.517 1155.01 683.513 1155.01 708.108C1155.01 732.686 1133.91 752.682 1107.99 752.682ZM1001.5 688.808H1020.81C1029.93 651.924 1064.24 624.302 1105.62 623.25C1099.4 598.752 1090.39 575.405 1079.29 553.19C1037.37 556.186 1000.15 568.183 967.946 584.358C986.608 615.688 998.355 651.083 1001.5 688.808ZM958.838 729.302C956.533 752.164 950.403 773.974 941.098 794.197C903.279 770.914 867.884 738.272 835.135 696.175C849.222 677.523 882.363 638.307 931.622 605.488C946.34 630.617 955.867 658.806 958.838 688.808H906.249V729.286H958.838V729.302ZM746.724 750.708C803.377 788.32 846.608 829.818 876.386 874.813C893.204 861.86 907.973 846.689 920.284 829.737C873.739 801.564 830.729 761.086 791.647 708.141L783.656 697.341L790.861 686.056C793.559 681.814 833.564 620.352 907.017 571.616C894.177 557.125 879.34 544.318 862.931 533.486C834.059 571.195 795.318 606.298 746.742 638.551L735.353 646.112L723.452 639.296C719.337 636.932 657.068 600.517 606.118 533.453C589.061 544.706 573.626 558.064 560.445 573.251C632.31 621.712 671.444 681.846 674.125 686.056L681.296 697.325L673.322 708.125C634.991 760.034 592.903 799.978 547.417 828.069C559.933 845.702 575.197 861.44 592.562 874.813C645.27 795.606 718.945 752.537 723.435 749.963L735.336 743.146L746.724 750.708ZM732.518 1108.76C706.583 1108.76 685.496 1088.76 685.496 1064.17C685.496 1039.58 706.583 1019.58 732.518 1019.58C758.437 1019.58 779.523 1039.58 779.523 1064.17C779.523 1088.76 758.42 1108.76 732.518 1108.76ZM711.158 921.541V870.83H753.826V921.768C785.055 919.242 814.491 910.742 840.802 897.335C816.078 859.626 780.496 824.41 734.105 791.963C712.506 806.632 664.665 842.9 628.433 897.449C653.549 910.224 681.5 918.627 711.158 921.541ZM362.9 792.594C402.666 790.117 435.363 763.223 444.19 727.408H467.377C469.665 757.443 477.383 786.037 489.779 812.299C454.196 828.328 416.667 836.618 377.328 836.926C371.608 822.548 366.674 807.798 362.9 792.594ZM363.289 623.655C402.167 626.262 434.062 652.184 443.555 686.93H467.561C470.874 650.533 482.228 616.304 500.053 585.881C468.176 569.463 431.296 556.963 389.669 553.401C378.519 575.68 369.521 599.109 363.289 623.655ZM356.996 663.517C382.932 663.517 404.019 683.513 404.019 708.108C404.019 732.686 382.932 752.682 356.996 752.682C331.061 752.682 309.974 732.686 309.974 708.108C309.991 683.53 331.078 663.517 356.996 663.517ZM561.902 727.408H510.065C512.131 750.254 517.885 772.112 526.985 792.367C563.644 769.23 597.997 737.123 629.857 696.175C616.044 677.879 583.928 639.781 536.206 607.366C522.41 631.491 513.377 658.385 510.27 686.93H561.902V727.408ZM584.288 377.466C584.254 377.191 584.236 376.92 584.219 376.649C584.202 376.377 584.185 376.106 584.151 375.831C603.121 368.156 622.927 361.923 643.347 357.195C645.823 395.439 674.73 426.931 713.147 434.994V455.735C680.211 458.212 649.016 466.389 620.485 479.18C602.95 449.841 589.154 415.84 584.288 377.466ZM779.523 352.03C779.523 327.436 758.437 307.439 732.518 307.439C706.583 307.439 685.496 327.436 685.496 352.03C685.496 376.625 706.583 396.621 732.518 396.621C758.437 396.621 779.523 376.625 779.523 352.03ZM821.741 356.304C842.503 360.886 862.633 366.958 881.893 374.552V374.617C879.076 411.241 867.978 446.166 848.701 479.245C820.102 466.405 788.839 458.196 755.834 455.702V433.779C792.51 424.356 819.743 393.577 821.741 356.304ZM713.157 544.301V496.197C688.775 498.383 665.537 504.309 644.007 513.295C677.387 555.894 715.479 584.666 734.107 597.311C771.551 571.098 801.892 543.071 825.249 513.408C803.651 504.357 780.344 498.383 755.843 496.197V544.301H713.157ZM943.529 550.13C927.018 530.636 907.622 513.473 885.87 499.29C905.385 465.903 917.696 430.655 922.699 393.706C977.37 422.948 1023.54 464.414 1057.04 514.558C1014.32 520.014 976.363 533.227 943.529 550.13ZM753.855 269.665C779.21 275.591 800.109 291.718 811.856 313.236C835.777 317.413 858.912 323.436 881.194 331.16C879.145 309.35 874.689 287.994 868.2 267.398C831.662 257.425 793.364 251.402 753.855 249.928V269.665ZM711.174 269.665C685.495 275.656 664.34 292.123 652.695 314.029C628.604 318.498 605.297 324.861 582.896 332.973C584.023 311.957 587.813 290.682 594.182 269.196C631.506 258.461 670.692 251.855 711.192 250.025V269.665H711.174ZM583.237 499.225C565.292 469.077 551.018 434.25 544.206 394.986C490.388 424.276 444.868 465.483 411.778 515.076C454.174 520.986 491.788 534.522 524.297 551.62C541.081 531.511 560.887 513.765 583.237 499.225ZM317.952 631.896C294.646 642.696 277.093 662.643 270.469 686.93H250.56C252.66 644.946 260.805 604.468 274.037 566.144C297.207 559.246 320.12 555.004 342.761 553.255C331.748 578.238 323.535 604.598 317.952 631.896ZM317.573 784.126C293.822 773.003 275.997 752.424 269.833 727.408V727.424H250.454C251.752 758.398 256.31 788.579 263.789 817.707C285.302 824.847 307.67 830.352 330.634 833.606C325.154 817.561 320.936 800.997 317.573 784.126ZM584.302 1011.79C587.938 983.052 596.646 956.774 608.12 933.038C639.315 948.921 674.18 959.008 711.18 962.052V981.822C673.224 990.695 644.898 1022.35 643.208 1060.66C622.223 1055.8 601.973 1049.31 582.56 1041.36C582.594 1031.43 583.055 1021.59 584.302 1011.79ZM711.166 1146.53C686.221 1140.72 665.595 1125 653.745 1104.02C630.456 1099.77 607.884 1093.75 586.149 1086.08C589.803 1107.69 596.205 1129.57 605.289 1151.67C639.266 1160.59 674.661 1166.16 711.166 1167.81V1146.53ZM753.837 1146.54C778.475 1140.8 798.896 1125.39 810.831 1104.79C833.539 1100.89 855.582 1095.34 876.839 1088.25C872.263 1110.85 865.195 1132.71 856.521 1153.61C823.517 1161.77 789.163 1166.61 753.837 1167.94V1146.54ZM753.837 981.805C792.083 990.726 820.631 1022.82 821.912 1061.53C842.81 1056.93 863.009 1050.76 882.371 1043.12C882.73 1033.68 882.645 1024.18 881.91 1014.62C879.742 986.436 872.537 959.267 860.602 933.15C828.366 949.52 792.185 959.623 753.837 962.23V981.805ZM1090.13 837.007C1051.08 837.007 1013.84 829.138 978.482 813.724C990.997 787.624 998.988 759.208 1001.51 729.303H1021.46C1031.29 765.345 1065.22 792.141 1106.06 792.983C1102.29 808.089 1097.35 822.678 1091.72 836.958C1091.41 836.949 1091.12 836.966 1090.83 836.982C1090.59 836.994 1090.36 837.007 1090.13 837.007ZM1195.15 727.408C1189.38 750.821 1173.35 770.299 1151.85 781.843C1148.47 799.346 1144.17 816.492 1138.55 833.072C1161.62 829.526 1183.99 823.649 1205.5 816.266C1212.77 787.591 1217.23 757.88 1218.49 727.408H1195.15ZM1194.55 686.93C1188.35 664.23 1172.59 645.384 1151.51 634.179C1145.98 606.185 1137.66 579.194 1126.48 553.628C1149.2 555.7 1172.2 560.298 1195.44 567.552C1208.42 605.44 1216.36 645.464 1218.44 686.93H1194.55ZM850.407 221.318C815.234 144.701 760.46 83.6114 734.473 57.1711C677.65 113.484 636.706 168.81 611.693 222.824C643.826 215.522 677.07 210.956 711.167 209.547V129.4H753.852V209.466C786.891 210.599 819.161 214.647 850.407 221.318ZM546.153 285.597C541.628 307.52 539.562 329.281 539.904 350.88C465.921 387.003 404.966 443.17 364.347 511.805C340.819 511.886 317.103 514.541 293.216 519.544C343.482 414.641 434.027 330.625 546.153 285.597ZM223.68 585.103C170.255 609.147 115.686 646.258 60.2801 696.515C86.1304 719.378 143.431 765.587 215.98 798.812C211.506 775.529 208.723 751.695 207.784 727.408H123.25V686.93H207.886C209.474 651.941 214.836 617.875 223.68 585.103ZM278.685 864.71C301.172 870.506 324.495 874.586 348.399 876.384C388.079 958.943 455.932 1026.31 540.859 1067.46C542.754 1089.93 547.262 1112.55 554.348 1135.33C426.633 1086.63 325.639 987.877 278.685 864.71ZM628.592 1198.74C653.725 1242.45 688.932 1286.96 734.486 1332.1C756.751 1309.45 800.068 1261.27 834.166 1199.8C808.025 1204.56 781.201 1207.46 753.849 1208.42V1286.82H711.163V1208.31C683.025 1207.16 655.433 1203.93 628.592 1198.74ZM907.984 1137.81C915.07 1115.98 920.346 1093.27 923.095 1069.89C1010.63 1029.03 1080.43 960.61 1120.83 876.06C1144.8 873.987 1168.18 869.648 1190.7 863.576C1143.11 989.398 1039.23 1089.91 907.984 1137.81ZM1261.2 727.409C1260.3 751.015 1257.63 774.201 1253.36 796.869C1323.91 763.823 1379.44 718.94 1404.78 696.532C1350.89 647.667 1297.81 611.172 1245.8 587.079C1254.32 619.251 1259.53 652.637 1261.12 686.93H1343.77V727.409H1261.2Z" fill="#FBC300"/>
<path fill-rule="evenodd" clip-rule="evenodd" d="M1185.24 361.227C1163.59 361.227 1143.22 353.212 1127.9 338.689C1112.57 324.165 1104.13 304.849 1104.13 284.302C1104.13 263.756 1112.58 244.44 1127.9 229.916C1143.22 215.392 1163.57 207.394 1185.24 207.394H1185.25C1206.9 207.394 1227.27 215.392 1242.59 229.916C1274.21 259.918 1274.21 308.703 1242.57 338.689C1227.27 353.212 1206.89 361.227 1185.24 361.227ZM1185.26 247.889C1174.98 247.889 1165.33 251.677 1158.08 258.559C1150.84 265.424 1146.82 274.572 1146.82 284.335C1146.82 294.05 1150.82 303.198 1158.08 310.079C1172.59 323.858 1197.89 323.858 1212.41 310.079C1227.38 295.863 1227.4 272.758 1212.42 258.559C1205.17 251.677 1195.52 247.889 1185.26 247.889Z" fill="#FBC300"/>
<path fill-rule="evenodd" clip-rule="evenodd" d="M279.761 1066.06C301.411 1066.06 321.781 1074.08 337.096 1088.6C352.412 1103.13 360.846 1122.44 360.846 1142.97C360.846 1163.5 352.412 1182.8 337.079 1197.34C321.747 1211.88 301.377 1219.88 279.727 1219.88C258.077 1219.88 237.707 1211.87 222.392 1197.34C207.076 1182.82 198.642 1163.52 198.642 1142.97C198.659 1122.43 207.093 1103.11 222.409 1088.6C237.742 1074.06 258.094 1066.06 279.761 1066.06ZM252.584 1168.73C267.08 1182.5 292.384 1182.48 306.914 1168.73C314.171 1161.87 318.166 1152.7 318.166 1142.97C318.166 1133.23 314.171 1124.09 306.914 1117.21C299.658 1110.33 290.011 1106.54 279.749 1106.54C269.488 1106.54 259.841 1110.33 252.584 1117.21C245.328 1124.09 241.332 1133.24 241.332 1142.97C241.332 1152.7 245.328 1161.85 252.584 1168.73Z" fill="#FBC300"/>
<path fill-rule="evenodd" clip-rule="evenodd" d="M1127.9 1088.6C1143.2 1074.06 1163.55 1066.06 1185.24 1066.06C1206.92 1066.06 1227.27 1074.06 1242.57 1088.59C1274.21 1118.59 1274.21 1167.36 1242.57 1197.36C1227.27 1211.88 1206.9 1219.88 1185.25 1219.88C1163.6 1219.88 1143.22 1211.87 1127.9 1197.34C1112.57 1182.84 1104.13 1163.54 1104.13 1142.97C1104.13 1122.44 1112.58 1103.13 1127.9 1088.6ZM1158.08 1168.72C1172.61 1182.46 1197.89 1182.51 1212.41 1168.73C1227.38 1154.52 1227.38 1131.43 1212.41 1117.2C1205.15 1110.31 1195.5 1106.53 1185.24 1106.53C1174.98 1106.53 1165.33 1110.31 1158.08 1117.2C1150.82 1124.08 1146.82 1133.23 1146.82 1142.96C1146.82 1152.7 1150.82 1161.84 1158.08 1168.72Z" fill="#FBC300"/>
<path fill-rule="evenodd" clip-rule="evenodd" d="M337.08 338.673C321.764 353.197 301.412 361.195 279.745 361.195C258.094 361.195 237.725 353.197 222.375 338.657C190.754 308.671 190.754 259.887 222.375 229.901C237.708 215.377 258.06 207.379 279.727 207.379C301.395 207.379 321.764 215.393 337.08 229.917C368.701 259.903 368.701 308.687 337.08 338.673ZM279.746 247.858C269.484 247.858 259.837 251.663 252.581 258.544C237.607 272.744 237.607 295.848 252.581 310.048C267.094 323.811 292.398 323.811 306.911 310.048C314.167 303.167 318.163 294.019 318.163 284.288C318.163 274.557 314.167 265.409 306.911 258.528C299.654 251.646 290.007 247.858 279.746 247.858Z" fill="#FBC300"/>
<path fill-rule="evenodd" clip-rule="evenodd" d="M1000.82 1178.87C1012.72 1172.68 1026.16 1169.41 1039.68 1169.41C1069.38 1169.41 1096.66 1184.76 1110.9 1209.44C1132.36 1246.65 1117.9 1293.47 1078.65 1313.82C1066.75 1319.99 1053.33 1323.26 1039.82 1323.26C1010.13 1323.26 982.826 1307.91 968.586 1283.22C958.171 1265.22 955.815 1244.44 961.91 1224.72C967.989 1205 981.819 1188.71 1000.82 1178.87ZM1006.02 1263.81C1015.87 1280.87 1039.96 1287.79 1058.16 1278.32C1076.75 1268.67 1083.6 1246.48 1073.42 1228.85C1066.68 1217.15 1053.74 1209.89 1039.67 1209.89C1033.2 1209.89 1027.02 1211.38 1021.3 1214.38C1012.28 1219.04 1005.73 1226.76 1002.84 1236.11C999.971 1245.43 1001.1 1255.28 1006.02 1263.81Z" fill="#FBC300"/>
<path fill-rule="evenodd" clip-rule="evenodd" d="M464.179 248.405C452.279 254.574 438.841 257.845 425.318 257.845C395.643 257.845 368.359 242.496 354.119 217.82C332.674 180.613 347.153 133.788 386.372 113.451C398.29 107.283 411.727 104.012 425.233 104.012C454.908 104.012 482.21 119.361 496.432 144.037C506.831 162.058 509.204 182.847 503.108 202.552C497.013 222.257 483.183 238.545 464.179 248.405ZM425.224 144.491C418.753 144.491 412.555 145.997 406.835 148.96C388.275 158.594 381.411 180.776 391.57 198.408C401.405 215.506 425.548 222.339 443.698 212.899C452.713 208.22 459.27 200.513 462.155 191.17C465.024 181.844 463.914 172 458.979 163.451C452.235 151.761 439.31 144.491 425.224 144.491Z" fill="#FBC300"/>
<path fill-rule="evenodd" clip-rule="evenodd" d="M1297.66 922.141C1310.85 922.141 1324.02 925.282 1335.73 931.208C1354.85 940.858 1368.85 957 1375.19 976.656C1381.52 996.313 1379.39 1017.12 1369.2 1035.25C1355.06 1060.4 1327.62 1076.01 1297.55 1076.01C1284.35 1076.01 1271.21 1072.88 1259.49 1066.97C1240.35 1057.31 1226.34 1041.18 1220.04 1021.52C1213.72 1001.87 1215.85 981.06 1226.05 962.926C1240.13 937.781 1267.59 922.141 1297.66 922.141ZM1279.52 1031.24C1297.86 1040.5 1321.86 1033.39 1331.53 1016.21C1336.34 1007.63 1337.33 997.786 1334.36 988.476C1331.36 979.166 1324.71 971.508 1315.65 966.942C1310.01 964.092 1303.95 962.635 1297.63 962.635C1283.39 962.635 1270.4 970.035 1263.71 981.951C1258.88 990.549 1257.85 1000.43 1260.86 1009.74C1263.84 1019.03 1270.49 1026.67 1279.52 1031.24Z" fill="#FBC300"/>
<path fill-rule="evenodd" clip-rule="evenodd" d="M167.332 505.086C154.134 505.086 140.969 501.961 129.257 496.051C89.7981 476.087 74.7899 429.424 95.8082 392.006C109.929 366.861 137.367 351.236 167.417 351.236C180.616 351.236 193.797 354.361 205.51 360.287C244.968 380.219 259.977 426.882 238.958 464.316C224.838 489.477 197.4 505.086 167.332 505.086ZM167.438 391.731C153.199 391.731 140.188 399.13 133.495 411.047C123.541 428.76 130.644 450.861 149.357 460.333C167.643 469.595 191.667 462.503 201.314 445.308C211.268 427.578 204.165 405.477 185.469 396.038C179.817 393.172 173.756 391.731 167.438 391.731Z" fill="#FBC300"/>
<path fill-rule="evenodd" clip-rule="evenodd" d="M432.669 1173.2C445.816 1173.2 458.946 1176.31 470.625 1182.17C489.765 1191.76 503.817 1207.87 510.186 1227.51C516.555 1247.16 514.472 1267.99 504.312 1286.14C490.226 1311.36 462.737 1327.05 432.601 1327.05C419.454 1327.05 406.341 1323.93 394.662 1318.07C355.186 1298.2 340.059 1251.55 360.992 1214.09C375.078 1188.88 402.533 1173.2 432.669 1173.2ZM414.681 1282.32C433.087 1291.58 456.991 1284.39 466.621 1267.18C471.436 1258.58 472.426 1248.72 469.404 1239.42C466.382 1230.13 459.723 1222.5 450.674 1217.97C445.022 1215.12 438.978 1213.7 432.678 1213.7C418.404 1213.7 405.393 1221.11 398.717 1233.05C388.814 1250.81 395.968 1272.91 414.681 1282.32Z" fill="#FBC300"/>
<path fill-rule="evenodd" clip-rule="evenodd" d="M1032.29 254.073C1019.15 254.073 1006.03 250.964 994.356 245.103C975.216 235.485 961.147 219.391 954.795 199.751C948.443 180.111 950.526 159.306 960.669 141.139C974.772 115.913 1002.24 100.24 1032.38 100.24C1045.53 100.24 1058.64 103.349 1070.3 109.21C1109.83 129.077 1124.94 175.707 1103.99 213.174C1089.9 238.4 1062.43 254.073 1032.29 254.073ZM1032.39 140.719C1018.1 140.719 1005.09 148.151 998.392 160.1C993.595 168.698 992.587 178.558 995.609 187.868C998.631 197.178 1005.29 204.804 1014.34 209.354C1032.78 218.583 1056.65 211.442 1066.28 194.231C1076.2 176.486 1069.05 154.385 1050.32 144.977C1044.71 142.144 1038.67 140.719 1032.39 140.719Z" fill="#FBC300"/>
<path fill-rule="evenodd" clip-rule="evenodd" d="M242.538 969.224C252.97 987.18 255.429 1007.95 249.384 1027.69C243.357 1047.44 229.561 1063.78 210.575 1073.67C198.623 1079.91 185.117 1083.21 171.526 1083.21C141.919 1083.21 114.652 1067.94 100.412 1043.33C78.8815 1006.19 93.2409 959.348 132.392 938.898C144.361 932.648 157.85 929.345 171.424 929.345C201.013 929.345 228.281 944.63 242.538 969.224ZM190.001 1038.22C198.999 1033.52 205.538 1025.78 208.39 1016.44C211.241 1007.1 210.08 997.267 205.146 988.751C198.384 977.061 185.459 969.823 171.424 969.823C164.936 969.823 158.721 971.329 152.984 974.341C134.424 984.039 127.612 1006.24 137.822 1023.84C147.657 1040.82 171.919 1047.65 190.001 1038.22Z" fill="#FBC300"/>
<path fill-rule="evenodd" clip-rule="evenodd" d="M1222.42 458.051C1211.97 440.046 1209.55 419.273 1215.59 399.552C1221.64 379.831 1235.42 363.51 1254.4 353.601C1266.35 347.367 1279.84 344.08 1293.42 344.08C1323.02 344.08 1350.29 359.349 1364.55 383.927C1386.1 421.086 1371.75 467.927 1332.57 488.377C1320.62 494.61 1307.11 497.913 1293.54 497.913C1263.95 497.913 1236.7 482.645 1222.42 458.051ZM1274.98 389.059C1265.98 393.755 1259.45 401.494 1256.59 410.836C1253.73 420.179 1254.87 430.007 1259.8 438.523C1269.71 455.573 1293.8 462.406 1312 452.901C1330.56 443.219 1337.37 421.021 1327.14 403.421C1320.38 391.779 1307.47 384.542 1293.42 384.542C1287.02 384.542 1280.65 386.096 1274.98 389.059Z" fill="#FBC300"/>
</g>
</svg>
