<svg width="1106" height="1049" viewBox="0 0 1106 1049" fill="none" xmlns="http://www.w3.org/2000/svg">
<g opacity="0.8">
<path fill-rule="evenodd" clip-rule="evenodd" d="M927.936 404.625C982.861 424.818 1038.74 461.721 1094.95 515.04L1106 525.503L1095.29 536.297C1091.59 540.025 1027.15 604.003 936.972 639.378C899.835 761.809 799.034 858.913 670.829 896.134C633.009 977.519 569.499 1035.12 565.555 1038.64L554.173 1048.79L543.126 1038.32C492.081 989.913 455.422 941.899 433.147 894.606C307.778 856.456 209.387 760.868 172.419 640.649C80.4861 605.58 14.4627 540.074 10.7246 536.309L0 525.516L11.0597 515.028C68.4853 460.584 125.537 423.327 181.583 403.427C222.793 298.878 311.568 216.21 422.81 179.1C442.996 123.813 483.084 67.4252 543.126 10.4878L554.173 0L565.555 10.17C569.886 14.0327 646.144 83.1936 681.193 177.498C795.206 213.9 886.313 297.937 927.936 404.625ZM834.133 386.509C851.947 386.791 869.916 388.966 887.988 392.963C849.447 312.019 779.131 247.54 692.148 213.913C695.835 229.962 698.065 246.501 698.426 263.418C755.787 290.603 802.952 333.581 834.133 386.509ZM698.263 770.529L698.263 770.516C698.188 768.317 698.114 766.124 697.951 763.9C695.927 737.265 688.889 711.815 677.121 687.551C694.974 674.594 710.583 659.022 723.061 641.249C750.633 653.558 779.7 660.537 810.186 662.053C784.805 708.331 745.902 746.481 698.325 772.297C698.317 772.068 698.308 771.84 698.3 771.611C698.288 771.25 698.275 770.889 698.263 770.529ZM385.272 640.209C357.932 652.763 329.123 660.097 298.883 661.967C323.825 707.329 361.812 744.977 408.191 770.842C408.25 770.085 408.306 769.328 408.362 768.571C408.576 765.674 408.79 762.781 409.158 759.902C412.599 733.059 420.991 709.003 431.819 687.514C413.656 674.325 397.866 658.386 385.272 640.209ZM836.48 568.237C816.9 568.237 800.98 553.141 800.98 534.586C800.98 516.018 816.9 500.922 836.48 500.922C856.06 500.922 871.979 516.018 871.979 534.586C871.979 553.141 856.047 568.237 836.48 568.237ZM756.086 520.015H770.665C777.548 492.17 803.458 471.316 834.69 470.522C829.998 452.028 823.192 434.401 814.814 417.631C783.169 419.892 755.068 428.95 730.757 441.161C744.846 464.814 753.715 491.534 756.086 520.015ZM723.87 550.586C722.13 567.845 717.502 584.31 710.477 599.578C681.926 582 655.204 557.358 630.481 525.576C641.115 511.495 666.135 481.889 703.323 457.112C714.435 476.083 721.627 497.364 723.87 520.015H684.168V550.573H723.87V550.586ZM563.737 566.746C606.506 595.141 639.144 626.47 661.624 660.44C674.321 650.661 685.471 639.207 694.765 626.409C659.626 605.14 627.156 574.581 597.651 534.61L591.618 526.457L597.058 517.937C599.094 514.735 629.296 468.334 684.749 431.541C675.056 420.601 663.854 410.932 651.467 402.755C629.67 431.223 600.422 457.724 563.75 482.073L555.152 487.782L546.167 482.636C543.061 480.851 496.051 453.36 457.586 402.73C444.709 411.226 433.056 421.31 423.105 432.776C477.36 469.361 506.904 514.759 508.928 517.937L514.342 526.445L508.322 534.598C479.384 573.787 447.609 603.942 413.27 625.15C422.719 638.462 434.242 650.343 447.352 660.44C487.143 600.642 542.764 568.127 546.155 566.184L555.139 561.038L563.737 566.746ZM553.012 837.058C533.432 837.058 517.512 821.962 517.512 803.394C517.512 784.827 533.432 769.73 553.012 769.73C572.579 769.73 588.498 784.827 588.498 803.394C588.498 821.962 572.566 837.058 553.012 837.058ZM536.887 695.716V657.432H569.1V695.887C592.676 693.981 614.898 687.563 634.762 677.442C616.097 648.973 589.234 622.387 554.212 597.891C537.906 608.966 501.787 636.346 474.435 677.528C493.396 687.172 514.497 693.516 536.887 695.716ZM273.969 598.368C303.991 596.497 328.675 576.194 335.339 549.156H352.844C354.572 571.83 360.398 593.417 369.756 613.244C342.893 625.345 314.561 631.604 284.862 631.836C280.543 620.981 276.818 609.846 273.969 598.368ZM274.263 470.827C303.614 472.795 327.693 492.365 334.86 518.597H352.984C355.484 491.118 364.056 465.277 377.514 442.309C353.448 429.915 325.605 420.478 294.179 417.789C285.761 434.609 278.968 452.296 274.263 470.827ZM269.521 500.922C289.101 500.922 305.02 516.018 305.02 534.586C305.02 553.141 289.101 568.237 269.521 568.237C249.941 568.237 234.021 553.141 234.021 534.586C234.034 516.03 249.954 500.922 269.521 500.922ZM424.199 549.156H385.064C386.624 566.404 390.968 582.906 397.839 598.197C425.514 580.73 451.449 556.49 475.502 525.577C465.073 511.764 440.827 483.002 404.799 458.531C394.384 476.744 387.565 497.047 385.219 518.597H424.199V549.156ZM441.114 284.968C441.088 284.76 441.076 284.555 441.063 284.351C441.05 284.146 441.037 283.941 441.011 283.733C455.332 277.939 470.285 273.233 485.701 269.664C487.57 298.536 509.393 322.311 538.396 328.398V344.057C513.531 345.927 489.981 352.1 468.441 361.756C455.203 339.607 444.788 313.938 441.114 284.968ZM588.498 265.765C588.498 247.197 572.579 232.101 553.012 232.101C533.432 232.101 517.512 247.197 517.512 265.765C517.512 284.332 533.432 299.428 553.012 299.428C572.579 299.428 588.498 284.332 588.498 265.765ZM620.376 268.992C636.05 272.451 651.247 277.035 665.787 282.768V282.816C663.661 310.466 655.282 336.832 640.729 361.805C619.138 352.112 595.536 345.914 570.62 344.032V327.481C598.308 320.367 618.867 297.13 620.376 268.992ZM538.393 410.92V374.604C519.986 376.254 502.443 380.728 486.188 387.512C511.389 419.672 540.146 441.394 554.21 450.94C582.478 431.15 605.383 409.991 623.017 387.598C606.711 380.765 589.116 376.254 570.619 374.604V410.92H538.393ZM712.322 415.32C699.858 400.603 685.214 387.646 668.792 376.938C683.526 351.733 692.82 325.123 696.596 297.229C737.871 319.304 772.726 350.609 798.016 388.465C765.765 392.585 737.11 402.559 712.322 415.32ZM569.125 203.583C588.267 208.057 604.044 220.232 612.913 236.477C630.972 239.631 648.438 244.178 665.26 250.008C663.713 233.543 660.349 217.42 655.45 201.872C627.865 194.342 598.953 189.795 569.125 188.683V203.583ZM536.901 203.583C517.514 208.106 501.543 220.537 492.752 237.076C474.564 240.449 456.969 245.253 440.057 251.377C440.908 235.511 443.769 219.449 448.577 203.229C476.755 195.124 506.338 190.137 536.914 188.756V203.583H536.901ZM440.312 376.889C426.765 354.129 415.989 327.836 410.846 298.194C370.216 320.306 335.851 351.415 310.87 388.856C342.876 393.318 371.273 403.537 395.816 416.445C408.487 401.263 423.439 387.866 440.312 376.889ZM240.04 477.049C222.445 485.202 209.194 500.261 204.193 518.597H189.163C190.748 486.901 196.897 456.342 206.887 427.409C224.379 422.202 241.677 418.999 258.769 417.679C250.455 436.54 244.255 456.44 240.04 477.049ZM239.756 591.975C221.826 583.577 208.369 568.041 203.715 549.156V549.168H189.085C190.065 572.552 193.506 595.336 199.152 617.326C215.394 622.717 232.28 626.873 249.617 629.33C245.479 617.216 242.295 604.712 239.756 591.975ZM441.114 763.851C443.859 742.154 450.433 722.315 459.096 704.395C482.646 716.386 508.968 724.002 536.901 726.3V741.225C508.246 747.923 486.861 771.82 485.585 800.741C469.743 797.074 454.455 792.173 439.799 786.171C439.825 778.678 440.173 771.246 441.114 763.851ZM536.887 865.575C518.055 861.187 502.483 849.317 493.538 833.476C475.956 830.273 458.915 825.726 442.506 819.932C445.264 836.25 450.098 852.765 456.956 869.45C482.607 876.185 509.328 880.39 536.887 881.637V865.575ZM569.11 865.576C587.71 861.248 603.127 849.612 612.137 834.063C629.281 831.117 645.922 826.925 661.97 821.571C658.516 838.635 653.179 855.137 646.631 870.917C621.714 877.078 595.78 880.733 569.11 881.735V865.576ZM569.11 741.212C597.984 747.947 619.536 772.175 620.503 801.401C636.28 797.93 651.529 793.272 666.147 787.503C666.417 780.377 666.353 773.201 665.799 765.989C664.162 744.708 658.722 724.197 649.712 704.48C625.375 716.838 598.061 724.466 569.11 726.434V741.212ZM822.997 631.898C793.517 631.898 765.404 625.957 738.708 614.32C748.157 594.616 754.189 573.164 756.097 550.587H771.153C778.577 577.796 804.19 598.026 835.023 598.662C832.175 610.067 828.449 621.08 824.196 631.861C823.966 631.854 823.744 631.867 823.523 631.879L823.52 631.879L823.517 631.879L823.514 631.879C823.453 631.883 823.392 631.886 823.332 631.889C823.284 631.891 823.236 631.893 823.188 631.894C823.125 631.897 823.061 631.898 822.997 631.898ZM902.287 549.156C897.93 566.831 885.826 581.536 869.597 590.251C867.045 603.465 863.797 616.41 859.556 628.927C876.97 626.25 893.856 621.812 910.098 616.239C915.589 594.591 918.954 572.16 919.907 549.156H902.287ZM901.818 518.597C897.139 501.46 885.241 487.232 869.322 478.773C865.146 457.638 858.868 437.262 850.425 417.961C867.582 419.525 884.945 422.997 902.488 428.473C912.285 457.076 918.279 487.293 919.851 518.597H901.818ZM642.02 167.084C615.466 109.242 574.114 63.1222 554.496 43.1611C511.597 85.6747 480.687 127.443 461.803 168.22C486.062 162.708 511.159 159.261 536.901 158.197V97.6904H569.126V158.136C594.068 158.992 618.431 162.048 642.02 167.084ZM412.317 215.612C408.902 232.163 407.342 248.591 407.6 264.897C351.747 292.168 305.729 334.572 275.063 386.388C257.301 386.449 239.396 388.453 221.363 392.23C259.311 313.034 327.668 249.606 412.317 215.612ZM168.86 441.723C128.527 459.875 87.3301 487.892 45.5016 525.834C65.0173 543.093 108.277 577.979 163.047 603.062C159.67 585.485 157.569 567.492 156.86 549.156H93.0405V518.597H156.937C158.136 492.182 162.183 466.464 168.86 441.723ZM210.392 652.812C227.369 657.188 244.977 660.268 263.023 661.625C292.98 723.953 344.205 774.815 408.321 805.875C409.751 822.842 413.154 839.918 418.504 857.116C322.085 820.348 245.84 745.796 210.392 652.812ZM474.55 904.984C493.525 937.988 520.104 971.591 554.495 1005.67C571.304 988.569 604.006 952.192 629.748 905.791C610.013 909.385 589.762 911.573 569.112 912.294V971.481H536.887V912.208C515.644 911.341 494.814 908.908 474.55 904.984ZM685.483 858.987C690.833 842.51 694.816 825.36 696.891 807.709C762.979 776.869 815.674 725.212 846.172 661.381C864.269 659.816 881.916 656.54 898.918 651.956C862.993 746.946 784.57 822.83 685.483 858.987ZM952.141 549.156C951.458 566.978 949.447 584.482 946.224 601.595C999.487 576.647 1041.41 542.763 1060.53 525.845C1019.85 488.955 979.778 461.403 940.514 443.214C946.946 467.502 950.878 492.707 952.077 518.597H1014.48V549.156H952.141Z" fill="#DF0E12"/>
</g>
</svg>
